# xmcd CD database file
#
# Track frame offsets:
#	150
#	33555
#	50115
#	72408
#	105498
#	147984
#	164394
#	193500
#	213534
#	240849
#	262155
#
# Disc length: 3929 seconds
#
# Revision: 0
# Processed by: cddbd v1.5.1PL0 Copyright (c) Steve Scherf et al.
# Submitted via: CDex 1.51
#
DISCID=a50f570b
DTITLE=Dave Proust - Prousty Live
DYEAR=2003
DGENRE=Country
TTITLE0=The Surfie in The Outback
TTITLE1=The Toughest Thing
TTITLE2=The Demon Drink
TTITLE3=What Happened to The Horses
TTITLE4=Hot Revenge
TTITLE5=Its All I Know
TTITLE6=The Stockman on The Beach
TTITLE7=The Boyfriend from Hell
TTITLE8=Mates
TTITLE9=A Lonely Life
TTITLE10=The Pain of Childbirth
EXTD=YEAR: 2003
EXTT0=
EXTT1=
EXTT2=
EXTT3=
EXTT4=
EXTT5=
EXTT6=
EXTT7=
EXTT8=
EXTT9=
EXTT10=
PLAYORDER=
